    <svg
      xmlns="http://www.w3.org/2000/svg"
      width="50mm"
      height="21mm"
      version="1"
      viewBox="0 0 50 21"
    >
      <path
        fill="#3f3f42"
        fillRule="evenodd"
        d="M32.173 16.573c-.91.254-2.095.36-3.111.36-2.646 0-4.382-1.376-4.382-3.895 0-2.392 1.63-3.937 4-3.937.53 0 1.101.064 1.44.233V5.863h2.053zm-2.053-5.461c-.318-.148-.762-.233-1.27-.233-1.249 0-2.074.762-2.074 2.096 0 1.418.889 2.222 2.349 2.222.254 0 .656 0 .995-.084zm18.923 5.461c-.91.254-2.096.36-3.133.36-2.625 0-4.381-1.376-4.381-3.895 0-2.392 1.63-3.937 4-3.937.55 0 1.1.064 1.44.233V5.863h2.074zm-2.074-5.461c-.318-.148-.741-.233-1.25-.233-1.27 0-2.095.762-2.095 2.096 0 1.418.91 2.222 2.37 2.222.255 0 .636 0 .975-.084zm-11.558 0c.34-.148.826-.19 1.228-.19 1.27 0 2.138.72 2.138 2.01 0 1.524-.974 2.223-2.265 2.244v1.757h.106c2.667 0 4.255-1.46 4.255-4.064 0-2.371-1.694-3.768-4.191-3.768-1.27 0-2.52.296-3.345.635V19.79h2.075z"
      ></path>
      <path
        fill="#dc0032"
        fillRule="evenodd"
        d="M17.611 4.487h.021-.021zM17.103 4.212l.339.381.19-.106-.529-.275z"
      ></path>
      <path
        fill="#dc0032"
        fillRule="evenodd"
        d="M16.595 3.937l.656.762.233-.127-.254-.296-.635-.339z"
      ></path>
      <path
        fill="#dc0032"
        fillRule="evenodd"
        d="M16.065 3.662l.995 1.143.233-.127L16.72 4l-.656-.338z"
      ></path>
      <path
        fill="#dc0032"
        fillRule="evenodd"
        d="M15.557 3.387l1.312 1.524.233-.127-.91-1.059-.635-.338zm2.519 2.688l-.148.084.148.17v-.254z"
      ></path>
      <path
        fill="#dc0032"
        fillRule="evenodd"
        d="M15.049 3.111l1.63 1.905.233-.127-1.228-1.439-.635-.338zm2.942 3.006l-.233.148.318.381v-.402l-.085-.127z"
      ></path>
      <path
        fill="#dc0032"
        fillRule="evenodd"
        d="M14.52 2.836l1.968 2.286.254-.127-1.566-1.82-.656-.339zm3.28 3.387l-.232.148.508.593v-.402l-.275-.34z"
      ></path>
      <path
        fill="#dc0032"
        fillRule="evenodd"
        d="M14.012 2.561l2.307 2.667.233-.127L14.647 2.9l-.635-.339zM17.61 6.35l-.233.127.699.825V6.9l-.466-.55z"
      ></path>
      <path
        fill="#dc0032"
        fillRule="evenodd"
        d="M13.504 2.286l2.625 3.048.233-.127-2.223-2.582-.635-.339zm3.916 4.17l-.233.127.889 1.037v-.402l-.656-.762z"
      ></path>
      <path
        fill="#dc0032"
        fillRule="evenodd"
        d="M12.975 2.01l2.963 3.43.233-.127-2.54-2.963-.656-.34zm4.254 4.552l-.232.127 1.08 1.248v-.402l-.848-.973z"
      ></path>
      <path
        fill="#dc0032"
        fillRule="evenodd"
        d="M12.467 1.736l3.28 3.83.234-.147-2.879-3.345-.635-.338zm4.572 4.931l-.233.128 1.27 1.481v-.402L17.04 6.668z"
      ></path>
      <path
        fill="#dc0032"
        fillRule="evenodd"
        d="M11.938 1.46l3.62 4.213.232-.149L12.594 1.8l-.656-.339zm4.932 5.313l-.254.127 1.46 1.694V8.19L16.87 6.773z"
      ></path>
      <path
        fill="#dc0032"
        fillRule="evenodd"
        d="M11.43 1.185l3.937 4.593.254-.148-3.535-4.106-.656-.339zm5.25 5.694l-.234.127 1.63 1.926V8.51l-1.397-1.63z"
      ></path>
      <path
        fill="#dc0032"
        fillRule="evenodd"
        d="M10.922.91l4.276 4.974.232-.148-3.873-4.487-.635-.339zm5.567 6.075l-.233.127 1.82 2.138v-.402L16.49 6.985z"
      ></path>
      <path
        fill="#dc0032"
        fillRule="evenodd"
        d="M10.393.614l4.614 5.376.233-.148L11.05.974l-.657-.36zm5.905 6.477l-.232.127 2.01 2.35v-.403l-1.778-2.074z"
      ></path>
      <path
        fill="#dc0032"
        fillRule="evenodd"
        d="M9.885.339l4.932 5.757.232-.127-4.508-5.27-.656-.36zm6.223 6.858l-.233.127 2.201 2.582v-.423l-1.968-2.286z"
      ></path>
      <path
        fill="#dc0032"
        fillRule="evenodd"
        d="M9.377.085l5.25 6.117.232-.127L10.012.423 9.377.085zm6.54 7.217l-.233.127 2.392 2.794v-.402l-2.159-2.519z"
      ></path>
      <path
        fill="#dc0032"
        fillRule="evenodd"
        d="M9.038 0l5.397 6.308.233-.127L9.504.148 9.377.085A.621.621 0 009.038 0zm6.689 7.408l-.233.127 2.582 3.006v-.402l-2.35-2.73z"
      ></path>
      <path
        fill="#dc0032"
        fillRule="evenodd"
        d="M9.038 0c-.085 0-.17.021-.254.042l5.461 6.371.254-.127L9.102 0h-.064zm6.52 7.514l-.233.127 2.751 3.239v-.424l-2.519-2.942z"
      ></path>
      <path
        fill="#dc0032"
        fillRule="evenodd"
        d="M8.848.021c-.043.021-.106.042-.127.064l-.127.063 5.482 6.371.233-.127L8.848.022zm6.519 7.599l-.233.148 2.942 3.43v-.403l-2.71-3.175z"
      ></path>
      <path
        fill="#dc0032"
        fillRule="evenodd"
        d="M8.636.106l-.233.127 5.482 6.392.233-.127L8.636.106zm6.54 7.62l-.233.148 3.133 3.64v-.402l-2.9-3.386z"
      ></path>
      <path
        fill="#dc0032"
        fillRule="evenodd"
        d="M8.445.212l-.232.127 5.482 6.392.232-.127L8.445.212zm6.54 7.62l-.232.148 3.323 3.873v-.402l-3.09-3.62z"
      ></path>
      <path
        fill="#dc0032"
        fillRule="evenodd"
        d="M8.255.318l-.233.127 5.482 6.392.233-.127L8.255.317zm6.54 7.62l-.233.148 3.514 4.085v-.402l-3.28-3.832z"
      ></path>
      <path
        fill="#dc0032"
        fillRule="evenodd"
        d="M8.064.423L7.832.55l5.482 6.393.232-.127L8.064.423zm6.54 7.62l-.232.148 3.704 4.297v-.402l-3.471-4.043z"
      ></path>
      <path
        fill="#dc0032"
        fillRule="evenodd"
        d="M7.874.53L7.64.655l5.482 6.392.233-.127L7.874.53zm6.562 7.62l-.233.147 3.873 4.53v-.402l-3.64-4.276z"
      ></path>
      <path
        fill="#dc0032"
        fillRule="evenodd"
        d="M7.683.614l-.232.148 5.503 6.392.233-.127L7.683.614zm6.562 7.662l-.233.127 4.064 4.741v-.402l-3.83-4.466z"
      ></path>
      <path
        fill="#dc0032"
        fillRule="evenodd"
        d="M7.493.72L7.26.847l5.503 6.413.233-.127L7.493.72zm6.561 7.662l-.232.127 4.254 4.974v-.423l-4.021-4.678z"
      ></path>
      <path
        fill="#dc0032"
        fillRule="evenodd"
        d="M7.302.825L7.07.952l5.503 6.435.233-.148L7.302.826zm6.562 7.663l-.233.127 4.445 5.186v-.403l-4.212-4.91z"
      ></path>
      <path
        fill="#dc0032"
        fillRule="evenodd"
        d="M7.112.931l-.233.127 5.503 6.435.233-.148L7.112.93zm6.562 7.663l-.233.127 4.635 5.397v-.402l-4.402-5.122z"
      ></path>
      <path
        fill="#dc0032"
        fillRule="evenodd"
        d="M6.921 1.037l-.232.127L12.192 7.6l.233-.148L6.92 1.037zM13.483 8.7l-.233.128 4.826 5.63v-.424L13.483 8.7z"
      ></path>
      <path
        fill="#dc0032"
        fillRule="evenodd"
        d="M6.73 1.143l-.232.127 5.503 6.435.233-.149-5.503-6.413zm6.584 7.662l-.233.127 4.995 5.842v-.402l-4.762-5.567z"
      ></path>
      <path
        fill="#dc0032"
        fillRule="evenodd"
        d="M6.54 1.228l-.254.127 5.546 6.455.233-.148L6.54 1.228zm6.583 7.683l-.233.127 5.186 6.054v-.402L13.123 8.91z"
      ></path>
      <path
        fill="#dc0032"
        fillRule="evenodd"
        d="M6.35 1.333l-.254.127 5.567 6.478a.165.165 0 01.084-.085l.127-.085L6.35 1.334zm6.583 7.684l-.233.127 5.334 6.223a.618.618 0 00.042-.19v-.17l-5.143-5.99z"
      ></path>
      <path
        fill="#dc0032"
        fillRule="evenodd"
        d="M6.16 1.44l-.255.126L11.6 8.191v-.084c0-.064.043-.148.085-.212L6.159 1.44zm6.582 7.683l-.17.106c-.02 0-.041.02-.063.02l5.419 6.33a.715.715 0 00.127-.254l-5.313-6.202z"
      ></path>
      <path
        fill="#dc0032"
        fillRule="evenodd"
        d="M5.969 1.545l-.254.127 5.884 6.858v-.423L5.97 1.545zm6.18 7.599l5.63 6.583c.064-.043.128-.127.191-.19l-5.418-6.308a.362.362 0 01-.297 0l-.105-.085z"
      ></path>
      <path
        fill="#dc0032"
        fillRule="evenodd"
        d="M5.778 1.651l-.254.127L17.59 15.833l.17-.085.063-.063-5.545-6.456h-.022l-.486-.296c-.043-.021-.064-.064-.106-.106-.042-.064-.042-.106-.064-.148v-.233L5.78 1.65z"
      ></path>
      <path
        fill="#dc0032"
        fillRule="evenodd"
        d="M5.588 1.757l-.254.127 12.065 14.055.233-.127L5.588 1.757z"
      ></path>
      <path
        fill="#dc0032"
        fillRule="evenodd"
        d="M5.397 1.841l-.254.127L17.23 16.046l.232-.128L5.397 1.841z"
      ></path>
      <path
        fill="#dc0032"
        fillRule="evenodd"
        d="M5.207 1.947l-.254.127L17.039 16.15l.233-.127L5.207 1.947z"
      ></path>
      <path
        fill="#dc0032"
        fillRule="evenodd"
        d="M5.016 2.053l-.254.127L16.85 16.256l.232-.127L5.016 2.053z"
      ></path>
      <path
        fill="#dc0032"
        fillRule="evenodd"
        d="M4.805 2.159l-.233.127 12.086 14.097.233-.148L4.805 2.159z"
      ></path>
      <path
        fill="#dc0032"
        fillRule="evenodd"
        d="M4.614 2.265l-.233.127 12.086 14.097.233-.148L4.614 2.265z"
      ></path>
      <path
        fill="#dc0032"
        fillRule="evenodd"
        d="M4.424 2.37l-.233.128 12.107 14.097.233-.149L4.424 2.37z"
      ></path>
      <path
        fill="#dc0032"
        fillRule="evenodd"
        d="M4.233 2.455L4 2.582 16.107 16.7l.233-.148L4.233 2.455z"
      ></path>
      <path
        fill="#dc0032"
        fillRule="evenodd"
        d="M4.043 2.561l-.233.127 12.107 14.118.233-.127L4.043 2.561z"
      ></path>
      <path
        fill="#dc0032"
        fillRule="evenodd"
        d="M3.852 2.667l-.233.127 5.885 6.858.19.127c.085.042.17.148.17.254v.021l5.863 6.858.232-.127L3.852 2.667z"
      ></path>
      <path
        fill="#dc0032"
        fillRule="evenodd"
        d="M3.662 2.773l-.233.127 5.524 6.456.699.38-5.99-6.963zm6.18 7.196c0 .022.022.043.022.064v.36l5.672 6.625.233-.127-5.927-6.922z"
      ></path>
      <path
        fill="#dc0032"
        fillRule="evenodd"
        d="M3.471 2.879l-.233.127 5.165 6.032.699.381-5.63-6.54zm6.393 7.429v.402l5.503 6.414.233-.127-5.736-6.689z"
      ></path>
      <path
        fill="#dc0032"
        fillRule="evenodd"
        d="M3.28 2.985l-.232.127L7.874 8.72l.677.38-5.27-6.116zm6.584 7.64v.424l5.312 6.18.233-.126-5.545-6.477z"
      ></path>
      <path
        fill="#dc0032"
        fillRule="evenodd"
        d="M3.09 3.07l-.233.126 4.467 5.207.677.402L3.09 3.07zm6.774 7.894v.402l5.122 5.97.233-.128-5.355-6.244z"
      ></path>
      <path
        fill="#dc0032"
        fillRule="evenodd"
        d="M2.9 3.175l-.233.127 4.106 4.784.678.402L2.9 3.175zm6.964 8.107v.402l4.931 5.757.233-.127-5.164-6.032z"
      ></path>
      <path
        fill="#dc0032"
        fillRule="evenodd"
        d="M2.71 3.28l-.234.128 3.747 4.381.677.381-4.19-4.89zm7.154 8.32v.423l4.74 5.545.234-.148-4.974-5.82z"
      ></path>
      <path
        fill="#dc0032"
        fillRule="evenodd"
        d="M2.519 3.387l-.233.127 3.387 3.958.677.38-3.831-4.465zm7.345 8.55v.403l4.572 5.334.232-.148-4.804-5.588z"
      ></path>
      <path
        fill="#dc0032"
        fillRule="evenodd"
        d="M2.328 3.493l-.233.127 3.027 3.534.699.381-3.493-4.042zm7.536 8.762v.403l4.381 5.122.233-.148-4.614-5.377z"
      ></path>
      <path
        fill="#db0032"
        fillRule="evenodd"
        d="M2.138 3.598l-.233.127 2.667 3.112.698.402-3.132-3.64zm5.545 6.858l.55.635v-.233c0-.042-.042-.105-.084-.127l-.466-.275zm2.18 2.117v.423l4.192 4.89.232-.149-4.423-5.164z"
      ></path>
      <path
        fill="#dc0032"
        fillRule="evenodd"
        d="M1.947 3.683l-.233.127 2.308 2.71.698.401-2.773-3.238zm5.186 6.456l1.1 1.27v-.402l-.401-.466-.699-.402zm2.73 2.773v.402l4.001 4.678.233-.127-4.233-4.953z"
      ></path>
      <path
        fill="#dc0032"
        fillRule="evenodd"
        d="M1.757 3.789l-.233.127 1.968 2.307.678.38L1.757 3.79zm4.826 6.053l1.65 1.905v-.402l-.952-1.122-.698-.38zm3.28 3.387v.402l3.81 4.466.233-.127-4.042-4.741z"
      ></path>
      <path
        fill="#dc0032"
        fillRule="evenodd"
        d="M1.566 3.895l-.233.127 1.61 1.883.676.381-2.053-2.391zm4.488 5.63l2.18 2.54v-.402L6.73 9.906l-.677-.381zm3.81 4.043v.402l3.64 4.233.233-.127-3.873-4.508z"
      ></path>
      <path
        fill="#dc0032"
        fillRule="evenodd"
        d="M1.376 4l-.233.127 1.249 1.461.677.381L1.376 4zm4.127 5.207l2.73 3.175v-.402L6.182 9.61l-.678-.403zm4.36 4.678v.402l3.45 4.022.234-.127-3.683-4.297z"
      ></path>
      <path
        fill="#dc0032"
        fillRule="evenodd"
        d="M1.185 4.106l-.233.127.89 1.038.677.402-1.334-1.567zM4.953 8.89l3.28 3.831v-.402L5.63 9.292l-.677-.402zm4.91 5.313v.402l3.26 3.81.233-.127-3.493-4.085z"
      ></path>
      <path
        fill="#dc0032"
        fillRule="evenodd"
        d="M.995 4.212l-.233.127.53.614.698.402-.995-1.143zm3.408 4.382l3.83 4.445v-.403L5.08 8.975l-.677-.381zm5.46 5.947v.403l3.07 3.577.233-.127-3.302-3.853z"
      ></path>
      <path
        fill="#dc0032"
        fillRule="evenodd"
        d="M.804 4.297l-.254.127.19.233.7.38-.636-.74zm3.048 3.98l4.382 5.1v-.423L4.55 8.657l-.699-.38zm6.012 6.582v.402l2.878 3.387.233-.149-3.111-3.64z"
      ></path>
      <path
        fill="#dc0032"
        fillRule="evenodd"
        d="M.614 4.403l-.148.084.423.233-.275-.317zm2.688 3.556l4.932 5.736v-.402L4 8.36l-.698-.402zm6.562 7.217v.424l2.709 3.154.233-.149-2.943-3.429z"
      ></path>
      <path
        fill="#dc0032"
        fillRule="evenodd"
        d="M2.773 7.641l5.46 6.371v-.402L3.45 8.043l-.677-.402zm7.09 7.874v.402l2.52 2.942.232-.148-2.751-3.196z"
      ></path>
      <path
        fill="#dc0032"
        fillRule="evenodd"
        d="M2.223 7.345l6.01 7.006v-.423L2.9 7.726l-.678-.381zm7.64 8.488v.402l2.329 2.73.233-.148-2.561-2.984z"
      ></path>
      <path
        fill="#dc0032"
        fillRule="evenodd"
        d="M1.672 7.027l6.562 7.641v-.402L2.35 7.408l-.678-.38zm8.192 9.123v.423L12 19.071l.233-.127-2.37-2.794z"
      ></path>
      <path
        fill="#db0032"
        fillRule="evenodd"
        d="M1.122 6.71l7.112 8.276v-.402L1.799 7.112l-.677-.402zm8.742 9.779v.402l1.947 2.286.233-.127-2.18-2.561z"
      ></path>
      <path
        fill="#da0032"
        fillRule="evenodd"
        d="M.572 6.392l7.662 8.933v-.403L1.249 6.795.57 6.392zm9.292 10.414v.402l1.778 2.075.232-.127-2.01-2.35z"
      ></path>
      <path
        fill="#d90032"
        fillRule="evenodd"
        d="M.021 6.096l8.213 9.546v-.402L.72 6.477.02 6.096zm9.843 11.028v.423l1.587 1.842.233-.127-1.82-2.138z"
      ></path>
      <path
        fill="#d80032"
        fillRule="evenodd"
        d="M0 6.075v.296l8.234 9.589v-.403L.169 6.16 0 6.075zm9.864 11.388v.254a.162.162 0 01-.043.106l1.44 1.672.232-.127-1.63-1.905z"
      ></path>
      <path
        fill="#d70032"
        fillRule="evenodd"
        d="M0 6.286v.424l8.234 9.588v-.402L0 6.286zM9.842 17.78c-.02.085-.084.17-.148.19l-.02.022L11.07 19.6l.233-.127-1.46-1.694z"
      ></path>
      <path
        fill="#d60032"
        fillRule="evenodd"
        d="M0 6.625v.402l8.234 9.589v-.402L0 6.624zM9.715 17.95c0 .021 0 .021-.02.021l-.212.127 1.397 1.609.232-.127-1.397-1.63z"
      ></path>
      <path
        fill="#d50032"
        fillRule="evenodd"
        d="M0 6.943v.402l8.234 9.588v-.402L0 6.943zm9.546 11.112l-.254.148 1.418 1.63.233-.149-1.397-1.63z"
      ></path>
      <path
        fill="#d40032"
        fillRule="evenodd"
        d="M0 7.281v.402l8.234 9.589v-.402L0 7.28zm9.356 10.88l-.149.085c-.042.021-.084.021-.127.021l1.44 1.672.233-.148-1.397-1.63z"
      ></path>
      <path
        fill="#d30032"
        fillRule="evenodd"
        d="M0 7.599V8l8.234 9.588v-.402L0 7.6zM8.7 18.16l1.63 1.884.232-.149-1.418-1.63c-.021 0-.064.022-.085.022h-.02c-.064 0-.107-.021-.15-.043l-.19-.084z"
      ></path>
      <path
        fill="#d20032"
        fillRule="evenodd"
        d="M0 7.916v.424l10.139 11.81.233-.148-1.524-1.778-.466-.254a.294.294 0 01-.148-.254v-.211L0 7.916z"
      ></path>
      <path
        fill="#d10032"
        fillRule="evenodd"
        d="M0 8.255v.402l9.948 11.6.233-.128L0 8.255z"
      ></path>
      <path
        fill="#d00032"
        fillRule="evenodd"
        d="M0 8.572v.403l9.758 11.388.233-.127L0 8.573z"
      ></path>
      <path
        fill="#cf0032"
        fillRule="evenodd"
        d="M0 8.89v.423l9.588 11.155.233-.127L0 8.891z"
      ></path>
      <path
        fill="#ce0032"
        fillRule="evenodd"
        d="M0 9.229v.402l9.398 10.943.233-.127L0 9.229z"
      ></path>
      <path
        fill="#cd0032"
        fillRule="evenodd"
        d="M0 9.546v.402l9.186 10.71c.064-.02.127-.042.19-.063l.064-.043L0 9.545z"
      ></path>
      <path
        fill="#cc0032"
        fillRule="evenodd"
        d="M0 9.864v.423l8.911 10.372h.127c.064 0 .127 0 .19-.021L0 9.864z"
      ></path>
      <path
        fill="#cb0032"
        fillRule="evenodd"
        d="M0 10.202v.402l8.424 9.821.297.17c.063.042.169.063.254.063L0 10.202z"
      ></path>
      <path
        fill="#ca0032"
        fillRule="evenodd"
        d="M0 10.52v.402l7.874 9.186.698.403L0 10.52z"
      ></path>
      <path
        fill="#c90032"
        fillRule="evenodd"
        d="M0 10.858v.402l7.324 8.53.698.402L0 10.858z"
      ></path>
      <path
        fill="#c80033"
        fillRule="evenodd"
        d="M0 11.176v.402l6.773 7.895.678.402L0 11.176z"
      ></path>
      <path
        fill="#c70033"
        fillRule="evenodd"
        d="M0 11.493v.402l6.223 7.26.677.402L0 11.493z"
      ></path>
      <path
        fill="#c60033"
        fillRule="evenodd"
        d="M0 11.832v.402l5.651 6.583.699.402L0 11.832z"
      ></path>
      <path
        fill="#c50033"
        fillRule="evenodd"
        d="M0 12.15v.402L5.101 18.5l.699.402L0 12.15z"
      ></path>
      <path
        fill="#c40033"
        fillRule="evenodd"
        d="M0 12.467v.402l4.55 5.313.7.402L0 12.467z"
      ></path>
      <path
        fill="#c30033"
        fillRule="evenodd"
        d="M0 12.806v.402l4 4.657.699.402L0 12.806z"
      ></path>
      <path
        fill="#c20033"
        fillRule="evenodd"
        d="M0 13.123v.402l3.45 4.022.699.402L0 13.123z"
      ></path>
      <path
        fill="#c10033"
        fillRule="evenodd"
        d="M0 13.441v.423l2.9 3.366.677.402L0 13.441z"
      ></path>
      <path
        fill="#c00033"
        fillRule="evenodd"
        d="M0 13.779v.402l2.328 2.73.699.403L0 13.779z"
      ></path>
      <path
        fill="#bf0033"
        fillRule="evenodd"
        d="M0 14.097v.402l1.778 2.096.698.38L0 14.098z"
      ></path>
      <path
        fill="#be0033"
        fillRule="evenodd"
        d="M0 14.414v.423l1.228 1.419.698.402L0 14.414z"
      ></path>
      <path
        fill="#bd0033"
        fillRule="evenodd"
        d="M0 14.753v.402l.677.783.699.403L0 14.753z"
      ></path>
      <path
        fill="#bc0033"
        fillRule="evenodd"
        d="M0 15.071v.106c0 .211.148.465.317.571l.508.275L0 15.071z"
      ></path>
      <path
        fill="#b03"
        fillRule="evenodd"
        d="M.127 15.557c.042.042.063.085.106.106l-.106-.106z"
      ></path>
    </svg>